#!OML:ASF F:\VICON\USERDATA\INSTALL\rory3\rory3.ASF
:FULLY-SPECIFIED
:DEGREES
738
root 2.9704 17.9045 -2.54274 -175.33 139.764 -178.343
lowerback 4.34367 -5.54194 -7.78438
upperback -0.671626 -7.77953 1.01007
thorax -1.95309 -3.78534 5.76181
lowerneck -30.3398 -9.48339 -13.3349
upperneck 19.5996 -10.1655 10.3437
head 12.7459 -4.15338 4.12167
rclavicle 6.85434e-014 -5.56597e-015
rhumerus 37.0699 -22.1272 -47.649
rradius 63.6447
rwrist 50.6811
rhand -60.8348 -21.9759
rfingers 7.12502
rthumb -32.9462 -48.9874
lclavicle 6.85434e-014 -5.56597e-015
lhumerus 52.7731 -10.6695 60.2318
lradius 53.4625
lwrist -37.9106
lhand -51.4399 53.178
lfingers 7.12502
lthumb -23.9705 801.701
rfemur -24.0642 -8.29015 19.6912
rtibia 31.4145
rfoot -10.2828 -6.45783
rtoes 19.2484
lfemur 1.22462 -2.40243 -10.7452
ltibia 22.1212
lfoot -6.59599 18.6322
ltoes -15.4088
739
root 2.94109 17.9213 -2.47754 -175.19 139.732 -178.121
lowerback 4.46006 -5.57357 -7.96629
upperback -0.899359 -7.85249 0.955905
thorax -2.22914 -3.79917 5.83646
lowerneck -30.1337 -9.41982 -13.338
upperneck 19.8526 -10.107 10.2662
head 12.7976 -4.1453 4.11159
rclavicle 4.22666e-014 5.76476e-015
rhumerus 37.4217 -22.1521 -47.683
rradius 62.8808
rwrist 50.4808
rhand -60.2859 -21.5555
rfingers 7.12502
rthumb -32.424 -48.6755
lclavicle 4.22666e-014 5.76476e-015
lhumerus 53.5845 -10.1617 59.9439
lradius 51.8757
lwrist -37.7041
lhand -50.8146 51.6816
lfingers 7.12502
lthumb -23.3707 800.283
rfemur -23.8084 -8.50258 19.7507
rtibia 31.1646
rfoot -10.2665 -6.35774
rtoes 19.0902
lfemur 1.17065 -2.22157 -10.9412
ltibia 22.2844
lfoot -6.48396 19.1215
ltoes -13.8894
740
root 2.91538 17.9349 -2.41611 -175.065 139.711 -177.98
lowerback 4.4737 -5.60904 -8.05486
upperback -1.08994 -7.9148 0.942623
thorax -2.41695 -3.81393 5.88773
lowerneck -30.1532 -9.38712 -13.4509
upperneck 20.2251 -10.0377 10.2498
head 12.947 -4.12574 4.14537
rclavicle 7.08046e-014 -8.15017e-015
rhumerus 37.7861 -22.2337 -47.7221
rradius 62.369
rwrist 50.4543
rhand -59.6842 -21.2023
rfingers 7.12502
rthumb -31.8511 -48.438
lclavicle 7.08046e-014 -8.15017e-015
lhumerus 54.3885 -9.70434 59.3866
lradius 50.4794
lwrist -37.275
lhand -50.3382 51.3182
lfingers 7.12502
lthumb -22.9137 799.977
rfemur -23.6112 -8.75711 19.8679
rtibia 30.9227
rfoot -10.1974 -6.20001
rtoes 18.68
lfemur 1.06239 -1.99225 -11.1089
ltibia 22.4633
lfoot -6.13701 19.9337
ltoes -13.3027
741
root 2.88913 17.9509 -2.36156 -175.081 139.67 -178.047
lowerback 4.43325 -5.64204 -7.97221
upperback -1.16736 -7.9529 0.995025
thorax -2.47267 -3.82927 5.89864
lowerneck -30.4353 -9.38111 -13.5491
upperneck 20.6408 -9.95092 10.1524
head 13.1527 -4.1005 4.14594
rclavicle 6.37975e-014 -9.14409e-015
rhumerus 38.2294 -22.3606 -47.7378
rradius 62.1165
rwrist 50.2146
rhand -59.4788 -20.4675
rfingers 7.12502
rthumb -31.6556 -47.7419
lclavicle 6.37975e-014 -9.14409e-015
lhumerus 55.1452 -9.23365 58.812
lradius 49.446
lwrist -36.822
lhand -49.8686 51.6315
lfingers 7.12502
lthumb -22.4629 800.345
rfemur -23.4174 -8.95712 20.1365
rtibia 30.6635
rfoot -10.1066 -6.06857
rtoes 19.034
lfemur 0.993634 -2.09469 -11.0994
ltibia 22.7106
lfoot -6.74959 20.9385
ltoes -9.24155
742
root 2.85998 17.9651 -2.30675 -175.17 139.676 -178.24
lowerback 4.3764 -5.64569 -7.86175
upperback -1.23714 -7.94771 1.08188
thorax -2.51664 -3.82432 5.92671
lowerneck -30.5837 -9.3857 -13.6227
upperneck 20.9025 -9.89067 10.0408
head 13.274 -4.09151 4.12941
rclavicle 1.5294e-014 3.37934e-015
rhumerus 38.4952 -22.4469 -47.6763
rradius 62.1818
rwrist 49.8716
rhand -59.5327 -20.505
rfingers 7.12502
rthumb -31.7069 -47.7693
lclavicle 1.5294e-014 3.37934e-015
lhumerus 55.7156 -8.76199 58.4868
lradius 48.7361
lwrist -36.5416
lhand -49.6407 51.946
lfingers 7.12502
lthumb -22.2442 800.686
rfemur -23.2229 -9.04735 20.5258
rtibia 30.376
rfoot -10.0575 -6.02546
rtoes 19.5843
lfemur 0.96892 -2.32572 -10.959
ltibia 23.0272
lfoot -8.09992 21.4336
ltoes -3.73543
743
root 2.83386 17.9761 -2.25018 -175.192 139.782 -178.29
lowerback 4.36231 -5.61004 -7.8237
upperback -1.37049 -7.90222 1.09644
thorax -2.65832 -3.79132 5.92855
lowerneck -30.5453 -9.34757 -13.5975
upperneck 21.0779 -9.82124 9.8821
head 13.3166 -4.08288 4.08057
rclavicle -7.15625e-015 -1.98785e-015
rhumerus 38.3858 -22.4677 -47.5476
rradius 62.6564
rwrist 49.678
rhand -59.6113 -20.807
rfingers 7.12502
rthumb -31.7818 -48.0565
lclavicle -7.15625e-015 -1.98785e-015
lhumerus 56.0435 -8.38741 58.211
lradius 48.3646
lwrist -36.2259
lhand -49.7636 52.1567
lfingers 7.12502
lthumb -22.3622 800.882
rfemur -23.0272 -9.09611 20.7887
rtibia 30.0956
rfoot -9.93944 -5.98199
rtoes 19.6504
lfemur 0.953947 -2.01105 -10.9711
ltibia 23.3716
lfoot -8.51122 21.1892
ltoes -2.83732
744
root 2.81146 17.9921 -2.19605 -175.02 139.901 -178.106
lowerback 4.33094 -5.58882 -7.87419
upperback -1.5288 -7.88145 1.0753
thorax -2.80634 -3.76796 5.94177
lowerneck -30.5883 -9.31558 -13.595
upperneck 21.2833 -9.73004 9.69325
head 13.3826 -4.06863 4.02736
rclavicle -5.34234e-015 1.09332e-014
rhumerus 38.2578 -22.4357 -47.4477
rradius 63.3795
rwrist 49.7222
rhand -59.7942 -21.2915
rfingers 7.12502
rthumb -31.9559 -48.5063
lclavicle -5.34234e-015 1.09332e-014
lhumerus 56.1949 -7.98136 58.191
lradius 48.2632
lwrist -36.0045
lhand -49.9307 52.0587
lfingers 7.12502
lthumb -22.5226 800.765
rfemur -22.9227 -9.17683 20.8507
rtibia 29.8605
rfoot -9.8081 -6.01363
rtoes 19.0787
lfemur 0.870112 -1.52368 -11.2462
ltibia 23.7364
lfoot -8.6433 20.5236
ltoes -3.33045
745
root 2.78901 18.0043 -2.14045 -174.869 140.032 -177.83
lowerback 4.30591 -5.58583 -8.02319
upperback -1.61969 -7.88813 1.06201
thorax -2.86939 -3.76242 6.0129
lowerneck -30.7259 -9.27994 -13.6843
upperneck 21.4669 -9.58734 9.55032
head 13.4588 -4.03104 4.01724
rclavicle 1.8692e-013 2.98177e-015
rhumerus 38.2073 -22.3561 -47.4152
rradius 64.332
rwrist 49.8559
rhand -59.8864 -21.7305
rfingers 7.12502
rthumb -32.0437 -48.9277
lclavicle 1.8692e-013 2.98177e-015
lhumerus 56.2305 -7.52197 58.2226
lradius 48.3967
lwrist -35.9353
lhand -50.1104 52.4437
lfingers 7.12502
lthumb -22.695 801.129
rfemur -22.7446 -9.1626 20.8
rtibia 29.7127
rfoot -9.81262 -5.97737
rtoes 18.7899
lfemur 0.902434 -1.14154 -11.6216
ltibia 24.1088
lfoot -8.94297 19.5463
ltoes -3.17633
746
root 2.76795 18.0111 -2.08832 -174.815 140.144 -177.755
lowerback 4.16939 -5.43839 -8.00562
upperback -1.85995 -7.69475 0.849777
thorax -3.10669 -3.64779 5.78097
lowerneck -29.7139 -9.12382 -13.2866
upperneck 21.3252 -9.64867 9.40595
head 13.1929 -4.07391 3.89266
rclavicle 2.22608e-013 5.56597e-015
rhumerus 37.1644 -22.4493 -47.1409
rradius 65.5513
rwrist 49.8813
rhand -59.9425 -22.0053
rfingers 7.12502
rthumb -32.0971 -49.1917
lclavicle 2.22608e-013 5.56597e-015
lhumerus 56.2007 -7.86762 58.1085
lradius 48.7664
lwrist -35.9539
lhand -50.3687 53.4044
lfingers 7.12502
lthumb -22.943 802.059
rfemur -22.614 -9.11772 20.903
rtibia 29.6211
rfoot -9.85197 -5.8636
rtoes 18.9043
lfemur 0.850919 -0.611236 -11.8384
ltibia 24.5255
lfoot -8.74569 18.4528
ltoes -4.94181
747
root 2.74479 18.0128 -2.04131 -174.756 140.218 -177.697
lowerback 4.04338 -5.45845 -7.95252
upperback -1.79927 -7.70358 0.887365
thorax -2.97219 -3.66191 5.77195
lowerneck -30.2688 -9.14065 -13.4142
upperneck 21.579 -9.55444 9.41684
head 13.3935 -4.02651 3.93569
rclavicle -1.28589e-015 -4.37326e-015
rhumerus 37.1587 -22.4805 -47.2
rradius 66.8784
rwrist 49.9031
rhand -60.3251 -22.4842
rfingers 7.12502
rthumb -32.4613 -49.5966
lclavicle -1.28589e-015 -4.37326e-015
lhumerus 56.3533 -7.30131 58.159
lradius 49.3838
lwrist -36.0222
lhand -50.633 53.9419
lfingers 7.12502
lthumb -23.1965 802.565
rfemur -22.545 -9.15307 21.045
rtibia 29.5572
rfoot -9.81597 -5.77995
rtoes 18.7591
lfemur 0.725258 0.00207737 -12.0558
ltibia 25.0164
lfoot -8.39625 17.1832
ltoes -8.98216
748
root 2.72016 18.0144 -1.99693 -174.719 140.285 -177.699
lowerback 4.01358 -5.47429 -7.82143
upperback -1.88057 -7.71892 0.869177
thorax -3.05715 -3.66593 5.68466
lowerneck -30.375 -9.0836 -13.4055
upperneck 21.7089 -9.46975 9.40957
head 13.4542 -3.98754 3.95168
rclavicle -2.91623e-014 -4.96962e-015
rhumerus 36.8085 -22.3562 -47.267
rradius 68.3162
rwrist 49.9333
rhand -60.9308 -23.0075
rfingers 7.12502
rthumb -33.0375 -49.9998
lclavicle -2.91623e-014 -4.96962e-015
lhumerus 56.2 -7.03835 58.1156
lradius 50.225
lwrist -36.1503
lhand -50.4877 53.9114
lfingers 7.12502
lthumb -23.0571 802.552
rfemur -22.4876 -9.06087 21.2088
rtibia 29.4951
rfoot -9.87387 -5.8041
rtoes 18.9601
lfemur 0.594381 0.615796 -12.2136
ltibia 25.5686
lfoot -8.39915 15.4701
ltoes -12.8602
749
root 2.69583 18.0209 -1.95232 -174.659 140.341 -177.704
lowerback 3.92989 -5.55678 -7.69771
upperback -2.01461 -7.82148 0.838423
thorax -3.15507 -3.71139 5.5879
lowerneck -30.2 -8.92152 -13.2541
upperneck 21.7019 -9.30068 9.30029
head 13.3811 -3.92194 3.92291
rclavicle 2.67148e-014 -5.1684e-015
rhumerus 36.4151 -22.0355 -47.5518
rradius 69.8876
rwrist 50.0908
rhand -61.5202 -23.1851
rfingers 7.12502
rthumb -33.5979 -50.0572
lclavicle 2.67148e-014 -5.1684e-015
lhumerus 55.8624 -6.7831 58.05
lradius 51.0265
lwrist -36.5343
lhand -50.0381 53.8585
lfingers 7.12502
lthumb -22.6256 802.552
rfemur -22.437 -8.82366 21.358
rtibia 29.4017
rfoot -10.0232 -5.95252
rtoes 19.1913
lfemur 0.444436 0.99666 -12.4006
ltibia 26.1972
lfoot -8.47127 14.1132
ltoes -15.2459
